<svg xmlns="http://www.w3.org/2000/svg" fill="none" viewBox="0 0 196 34"><path fill="#101010" d="M13.932 7.956q4.896 0 7.2 1.98 2.34 1.98 2.34 5.184 0 1.08-.288 2.412-.684 2.952-2.556 5.184-1.872 2.196-4.608 3.42-2.7 1.188-5.868 1.188-5.004 0-7.416-1.98Q.36 23.328.36 20.016q0-1.116.288-2.484a11.5 11.5 0 0 1 2.592-4.968q1.944-2.196 4.716-3.384 2.808-1.224 5.976-1.224m-.108 3.204q-.756 0-1.62 1.368-.828 1.332-1.98 5.076T9.072 22.86q0 .792.252 1.08.252.252.684.252.756.072 1.548-1.296.828-1.368 2.052-5.328 1.116-3.492 1.116-5.076 0-.756-.252-1.044-.216-.288-.648-.288M44.99 22.032q-.072.144-.072.432 0 .252.108.396a.5.5 0 0 0 .36.144q.432 0 .72-.36.324-.396.432-.396.18 0 .288.252.108.216.108.54.036 1.044-.684 2.052-.72.972-2.124 1.62-1.368.612-3.312.612-2.376 0-3.78-1.08-1.404-1.116-1.44-2.952 0-1.332.648-2.988l1.98-5.184q.18-.468.18-.756 0-.468-.324-.72a.98.98 0 0 0-.72-.288q-.684 0-1.404.648-.684.612-1.116 2.016v-.072l-2.268 7.308q-.108.432-.108.756 0 .468.18.756.18.252.504.504.252.252.36.432.108.144.036.396-.18.468-.72.684T31.166 27h-8.208q-.936 0-1.368-.288-.432-.324-.288-.828.144-.432.756-.756.54-.288.9-.684t.612-1.26L29.042 5.22q.108-.324.108-.54 0-.396-.216-.648a2.5 2.5 0 0 0-.504-.504q-.36-.288-.54-.504-.144-.216-.036-.576.216-.828 2.268-1.44a15 15 0 0 1 4.284-.612q2.088 0 3.06.792 1.008.792 1.008 2.16 0 .792-.252 1.548l-1.944 6.336q1.404-1.836 2.952-2.556a8.2 8.2 0 0 1 3.42-.72q2.196 0 3.528 1.332 1.368 1.332 1.368 3.456 0 1.116-.36 2.196zm37.727 0q-.073.144-.073.432 0 .252.108.396a.5.5 0 0 0 .36.144q.433 0 .72-.36.324-.396.433-.396.18 0 .287.252.108.216.108.54.037 1.044-.683 2.052-.72.972-2.124 1.62-1.368.612-3.312.612-2.376 0-3.78-1.08-1.404-1.116-1.44-2.952 0-1.332.648-2.988l1.98-5.184q.18-.468.18-.756 0-.468-.325-.72a.98.98 0 0 0-.72-.288q-.611 0-1.26.54-.648.54-1.151 1.692l-1.98 6.444q-.073.144-.072.432 0 .252.108.396a.5.5 0 0 0 .36.144q.431 0 .72-.36.324-.396.431-.396.18 0 .288.252.108.216.108.54.037 1.044-.683 2.052-.72.972-2.124 1.62-1.368.612-3.312.612-2.376 0-3.78-1.08-1.405-1.116-1.44-2.952 0-1.332.648-2.988l1.98-5.184q.18-.468.18-.756 0-.468-.325-.72a.98.98 0 0 0-.72-.288q-.611 0-1.26.54-.647.504-1.08 1.656l-2.376 7.704a2.2 2.2 0 0 0-.144.756q0 .432.18.72.18.252.505.54.252.216.36.396t.036.432q-.145.468-.684.684-.54.216-1.693.216h-8.208q-.935 0-1.331-.288-.432-.324-.325-.828.144-.432.757-.756.54-.288.9-.684t.611-1.26l3.205-10.404q.071-.18.072-.504 0-.396-.18-.612-.144-.216-.505-.54-.36-.288-.503-.504t-.036-.576q.216-.828 2.268-1.44a14.1 14.1 0 0 1 4.284-.648q1.764 0 2.772.972 1.043.972 1.008 2.664 1.475-2.052 3.096-2.844a8.15 8.15 0 0 1 3.564-.792q2.088 0 3.384 1.224 1.332 1.188 1.476 3.132 1.548-2.448 3.312-3.384 1.763-.972 3.851-.972 2.197 0 3.528 1.332 1.369 1.332 1.368 3.456 0 1.116-.36 2.196z"/><path fill="#101010" d="M104.932 7.956q1.584 0 2.52 1.296.972 1.26.972 3.456 0 1.908-.684 4.104-1.332 4.428-4.284 8.352-2.917 3.924-6.733 6.3-3.78 2.376-7.56 2.376-1.871 0-3.24-.648-1.332-.648-2.016-1.728-.72-1.08-.72-2.304 0-.54.18-1.188.324-1.008 1.08-1.548.757-.54 1.8-.54 1.657 0 2.7 1.116 1.08 1.152 1.369 3.132 2.303-.108 4.248-1.98-1.836-.324-2.736-1.224-.864-.936-1.189-2.88l-1.44-8.82q-.108-.684-.323-.936a.56.56 0 0 0-.504-.288q-.253 0-.612.252-.325.252-.469.252-.287 0-.287-.612 0-.504.18-1.08.647-2.052 2.412-3.456 1.764-1.44 4.103-1.44 2.305 0 3.385 1.368 1.115 1.368 1.44 4.212l1.08 7.92q.107.9.648.9.648 0 1.512-1.152.864-1.188 1.692-3.348a6.8 6.8 0 0 1-1.656-2.232 6.4 6.4 0 0 1-.576-2.7q0-1.116.288-2.016.432-1.44 1.332-2.16.936-.756 2.088-.756m17.932-7.56q3.852 0 5.76 1.188 1.944 1.152 1.944 2.844 0 1.368-1.152 2.124-1.116.72-2.952.72-1.692 0-2.628-.828t-.936-2.052q0-.756.468-1.584-1.08 0-1.8.54-.72.504-1.116 1.764a5.6 5.6 0 0 0-.216 1.476q0 .864.288 1.368.324.468.9.468h2.124q1.872 0 1.872 1.152 0 .144-.072.432a1.9 1.9 0 0 1-.9 1.188q-.648.396-1.98.396h-1.08l-3.564 11.664q-.108.432-.108.756 0 .468.18.756.18.252.504.504.252.252.36.432.108.144.036.396-.18.468-.72.684T116.42 27h-8.208q-.936 0-1.368-.288-.432-.324-.288-.828.144-.432.756-.756.54-.288.9-.684t.612-1.26l2.808-9.216q.18-.54.18-1.116 0-.72-.324-1.116-.288-.432-.9-.936a9 9 0 0 1-.612-.54.97.97 0 0 1-.18-.576q-.036-.684.468-.972.54-.288 2.016-.288h.9a6.7 6.7 0 0 1-.252-1.8q0-.9.324-1.872.684-1.836 2.916-3.096 2.268-1.26 6.696-1.26"/><path fill="#101010" d="M137.084 7.956q4.896 0 7.2 1.98 2.34 1.98 2.34 5.184 0 1.08-.288 2.412-.684 2.952-2.556 5.184-1.872 2.196-4.608 3.42-2.7 1.188-5.868 1.188-5.004 0-7.416-1.98-2.376-2.016-2.376-5.328 0-1.116.288-2.484a11.5 11.5 0 0 1 2.592-4.968q1.944-2.196 4.716-3.384 2.808-1.224 5.976-1.224m-.108 3.204q-.756 0-1.62 1.368-.828 1.332-1.98 5.076t-1.152 5.256q0 .792.252 1.08.252.252.684.252.756.072 1.548-1.296.828-1.368 2.052-5.328 1.116-3.492 1.116-5.076 0-.756-.252-1.044-.216-.288-.648-.288m23.733-3.204q4.896 0 7.2 1.98 2.34 1.98 2.34 5.184 0 1.08-.288 2.412-.684 2.952-2.556 5.184-1.872 2.196-4.608 3.42-2.7 1.188-5.868 1.188-5.004 0-7.416-1.98-2.376-2.016-2.376-5.328 0-1.116.288-2.484a11.5 11.5 0 0 1 2.592-4.968q1.944-2.196 4.716-3.384 2.808-1.224 5.976-1.224m-.108 3.204q-.756 0-1.62 1.368-.828 1.332-1.98 5.076t-1.152 5.256q0 .792.252 1.08.252.252.684.252.756.072 1.548-1.296.828-1.368 2.052-5.328 1.116-3.492 1.116-5.076 0-.756-.252-1.044-.216-.288-.648-.288m29.925 10.656a2 2 0 0 0-.072.396q0 .252.144.396a.5.5 0 0 0 .36.144q.432 0 .72-.36.324-.396.432-.396.18 0 .288.252t.108.576q.036.972-.756 1.98-.756 1.008-2.052 1.656a6.2 6.2 0 0 1-2.808.648q-1.8 0-3.132-.684t-1.836-1.8q-.972 1.26-2.232 1.872a6 6 0 0 1-2.664.612 6.1 6.1 0 0 1-3.096-.828q-1.404-.828-2.268-2.34-.828-1.548-.828-3.492 0-3.276 1.224-6.156 1.26-2.916 3.492-4.68 2.232-1.8 5.076-1.8 1.548 0 2.628.36 1.116.36 2.016 1.08l1.224-4.032q.108-.324.108-.54 0-.396-.216-.648a2.5 2.5 0 0 0-.504-.504q-.36-.288-.54-.504-.144-.216-.036-.576.216-.828 2.268-1.44a15 15 0 0 1 4.284-.612q2.088 0 3.06.792 1.008.792 1.008 2.16 0 .792-.252 1.548zM184.514 11.7q-.576-.504-1.26-.504-1.044 0-2.052 1.548t-1.62 3.744-.576 3.96q0 1.98 1.296 1.98.468 0 .792-.36.324-.396.612-1.26z"/></svg>